<svg xmlns="http://www.w3.org/2000/svg" viewBox="0 0 1280 720" font-family="Inter, system-ui, sans-serif">
  <rect width="1280" height="720" fill="#07070A"/>
  <!-- sidebar -->
  <rect width="260" height="720" fill="#0F0F14"/>
  <rect x="259" y="0" width="1" height="720" fill="#23232E"/>
  <g transform="translate(20,28)">
    <rect width="10" height="10" rx="2" fill="#CCFF00"/>
    <rect x="12" width="10" height="10" rx="2" fill="#22D3EE"/>
    <rect y="12" width="10" height="10" rx="2" fill="#F59E0B"/>
    <rect x="12" y="12" width="10" height="10" rx="2" fill="#A78BFA"/>
    <text x="32" y="20" fill="#F5F5F7" font-family="Fraunces, serif" font-size="18">Marketing Brain</text>
    <text x="32" y="38" fill="#8A8A95" font-family="JetBrains Mono, monospace" font-size="10">v0.5 · phase 5</text>
  </g>
  <!-- nav groups -->
  <g font-size="12">
    <text x="32" y="98" fill="#8A8A95" font-family="JetBrains Mono, monospace" font-size="9">OVERVIEW</text>
    <rect x="20" y="106" width="220" height="28" rx="8" fill="#15151D" stroke="#CCFF00" stroke-opacity="0.35"/>
    <text x="40" y="124" fill="#F5F5F7">⌂ Dashboard</text>
    <text x="32" y="158" fill="#8A8A95" font-family="JetBrains Mono, monospace" font-size="9">FOUNDATION</text>
    <text x="40" y="178" fill="#8A8A95">⚐ Brands</text>
    <text x="40" y="198" fill="#8A8A95">▦ Products</text>
    <text x="40" y="218" fill="#8A8A95">◉ Brand Brain</text>
    <text x="40" y="238" fill="#8A8A95">↗ Trends</text>
    <text x="32" y="268" fill="#8A8A95" font-family="JetBrains Mono, monospace" font-size="9">CREATE</text>
    <text x="40" y="288" fill="#8A8A95">★ Ideas</text>
    <text x="40" y="308" fill="#8A8A95">✻ Studio</text>
    <text x="40" y="328" fill="#8A8A95">▤ Calendar</text>
    <text x="32" y="358" fill="#8A8A95" font-family="JetBrains Mono, monospace" font-size="9">SHIP</text>
    <text x="40" y="378" fill="#8A8A95">✓ Reviews</text>
    <text x="40" y="398" fill="#8A8A95">▭ Library</text>
    <text x="40" y="418" fill="#8A8A95">➤ Publishing</text>
  </g>
  <!-- header -->
  <rect x="260" width="1020" height="60" fill="#07070A"/>
  <rect x="260" y="59" width="1020" height="1" fill="#23232E"/>
  <g transform="translate(290,18)">
    <rect width="200" height="32" rx="10" fill="#15151D" stroke="#23232E"/>
    <text x="14" y="20" fill="#F5F5F7" font-size="12">Tennis Outlet</text>
    <text x="170" y="20" fill="#8A8A95" font-size="10">▾</text>
  </g>
  <g transform="translate(960,18)">
    <rect width="180" height="32" rx="10" fill="#15151D" stroke="#23232E"/>
    <text x="14" y="20" fill="#8A8A95" font-size="12">⌕ Search content</text>
    <text x="148" y="20" fill="#8A8A95" font-family="JetBrains Mono, monospace" font-size="10">⌘K</text>
    <g transform="translate(190,4)">
      <rect width="80" height="24" rx="6" fill="#15151D"/>
      <text x="40" y="17" text-anchor="middle" fill="#CCFF00" font-size="11">$0 / 200</text>
    </g>
  </g>
  <!-- main: KPI cards -->
  <g transform="translate(284,88)">
    <text fill="#F5F5F7" font-family="Fraunces, serif" font-size="32">Dashboard</text>
    <text y="24" fill="#C9C9D2" font-size="14">Single pane for the whole content operation.</text>
  </g>
  <g transform="translate(284,170)">
    <g><rect width="232" height="92" rx="14" fill="#0F0F14" stroke="#23232E"/>
      <text x="16" y="22" fill="#8A8A95" font-family="JetBrains Mono, monospace" font-size="10">BRANDS</text>
      <text x="16" y="60" fill="#F5F5F7" font-family="Fraunces, serif" font-size="30">5</text>
      <text x="16" y="80" fill="#8A8A95" font-size="11">isolated sport verticals</text></g>
    <g transform="translate(244,0)"><rect width="232" height="92" rx="14" fill="#0F0F14" stroke="#23232E"/>
      <text x="16" y="22" fill="#8A8A95" font-family="JetBrains Mono, monospace" font-size="10">CALENDAR ENTRIES</text>
      <text x="16" y="60" fill="#F5F5F7" font-family="Fraunces, serif" font-size="30">120</text>
      <text x="16" y="80" fill="#8A8A95" font-size="11">scheduled in current plan</text></g>
    <g transform="translate(488,0)"><rect width="232" height="92" rx="14" fill="#0F0F14" stroke="#23232E"/>
      <text x="16" y="22" fill="#8A8A95" font-family="JetBrains Mono, monospace" font-size="10">MTD SPEND</text>
      <text x="16" y="60" fill="#F5F5F7" font-family="Fraunces, serif" font-size="30">$47</text>
      <text x="16" y="80" fill="#8A8A95" font-size="11">of $200 cap</text></g>
    <g transform="translate(732,0)"><rect width="232" height="92" rx="14" fill="#0F0F14" stroke="#23232E"/>
      <text x="16" y="22" fill="#8A8A95" font-family="JetBrains Mono, monospace" font-size="10">REVIEW QUEUE</text>
      <text x="16" y="60" fill="#F5F5F7" font-family="Fraunces, serif" font-size="30">8</text>
      <text x="16" y="80" fill="#8A8A95" font-size="11">drafts awaiting approval</text></g>
  </g>
  <!-- ideas card -->
  <g transform="translate(284,290)">
    <rect width="476" height="280" rx="14" fill="#0F0F14" stroke="#23232E"/>
    <text x="16" y="24" fill="#8A8A95" font-family="JetBrains Mono, monospace" font-size="10">TOP-SCORED IDEAS</text>
    <g font-size="13" fill="#F5F5F7">
      <text x="16" y="60" fill="#CCFF00" font-family="JetBrains Mono, monospace" text-anchor="end" dx="40">92.4</text>
      <text x="80" y="60" fill="#8A8A95" font-family="JetBrains Mono, monospace" font-size="11">instagram</text>
      <text x="160" y="60">How to choose grip size — beginner guide</text>
      <text x="16" y="86" fill="#CCFF00" font-family="JetBrains Mono, monospace" text-anchor="end" dx="40">88.1</text>
      <text x="80" y="86" fill="#8A8A95" font-family="JetBrains Mono, monospace" font-size="11">youtube</text>
      <text x="160" y="86">5 mistakes beginners make with tension</text>
      <text x="16" y="112" fill="#CCFF00" font-family="JetBrains Mono, monospace" text-anchor="end" dx="40">86.7</text>
      <text x="80" y="112" fill="#8A8A95" font-family="JetBrains Mono, monospace" font-size="11">blog</text>
      <text x="160" y="112">Why most racket weight advice is wrong</text>
      <text x="16" y="138" fill="#CCFF00" font-family="JetBrains Mono, monospace" text-anchor="end" dx="40">83.2</text>
      <text x="80" y="138" fill="#8A8A95" font-family="JetBrains Mono, monospace" font-size="11">x</text>
      <text x="160" y="138">Thread: 5 footwork drills you can do today</text>
      <text x="16" y="164" fill="#CCFF00" font-family="JetBrains Mono, monospace" text-anchor="end" dx="40">80.9</text>
      <text x="80" y="164" fill="#8A8A95" font-family="JetBrains Mono, monospace" font-size="11">email</text>
      <text x="160" y="164">Weekly digest: what to play this weekend</text>
    </g>
  </g>
  <!-- jobs card -->
  <g transform="translate(784,290)">
    <rect width="476" height="280" rx="14" fill="#0F0F14" stroke="#23232E"/>
    <text x="16" y="24" fill="#8A8A95" font-family="JetBrains Mono, monospace" font-size="10">RECENT JOBS</text>
    <g font-size="12" font-family="JetBrains Mono, monospace">
      <text x="16" y="56" fill="#8A8A95">idea_mill.run</text>
      <text x="460" y="56" text-anchor="end" fill="#44E08F">● done</text>
      <text x="16" y="82" fill="#8A8A95">calendar.generate</text>
      <text x="460" y="82" text-anchor="end" fill="#44E08F">● done</text>
      <text x="16" y="108" fill="#8A8A95">static_post.draft</text>
      <text x="460" y="108" text-anchor="end" fill="#CCFF00">● running</text>
      <text x="16" y="134" fill="#8A8A95">critic.score</text>
      <text x="460" y="134" text-anchor="end" fill="#CCFF00">● running</text>
      <text x="16" y="160" fill="#8A8A95">publishing.export</text>
      <text x="460" y="160" text-anchor="end" fill="#44E08F">● done</text>
    </g>
  </g>
</svg>
